<mxfile host="app.diagrams.net" modified="2022-02-17T00:30:53.563Z" agent="5.0 (Macintosh; Intel Mac OS X 10_15_7) AppleWebKit/537.36 (KHTML, like Gecko) Chrome/98.0.4758.80 Safari/537.36" etag="oMInJnjNuZt6WkIfhnz4" version="16.2.4" type="github">
  <diagram id="xi3TrrNPuhg_sPIkacZI" name="Page-1">
    <mxGraphModel dx="1115" dy="706" grid="1" gridSize="10" guides="1" tooltips="1" connect="1" arrows="1" fold="1" page="1" pageScale="1" pageWidth="827" pageHeight="1169" math="0" shadow="0">
      <root>
        <mxCell id="0" />
        <mxCell id="1" parent="0" />
      </root>
    </mxGraphModel>
  </diagram>
</mxfile>
